HIERARCHY
ROOT SimulationBone
{
	OFFSET 0.000000 0.000000 0.000000
	CHANNELS 6 Xposition Yposition Zposition Zrotation Yrotation Xrotation 
	JOINT Hips
	{
		OFFSET 0.000000 0.000000 0.000000
		CHANNELS 6 Xposition Yposition Zposition Zrotation Yrotation Xrotation 
		JOINT LeftUpLeg
		{
			OFFSET 0.103458 1.857831 10.548500
			CHANNELS 3 Zrotation Yrotation Xrotation
			JOINT LeftLeg
			{
				OFFSET 43.500000 -0.000027 -0.000013
				CHANNELS 3 Zrotation Yrotation Xrotation
				JOINT LeftFoot
				{
					OFFSET 42.372196 0.000031 0.000011
					CHANNELS 3 Zrotation Yrotation Xrotation
					JOINT LeftToe
					{
						OFFSET 17.299994 -0.000003 -0.000004
						CHANNELS 3 Zrotation Yrotation Xrotation
						End Site
						{
							OFFSET 0.000000 0.000000 0.000000
						}
					}
				}
			}
		}
		JOINT RightUpLeg
		{
			OFFSET 0.103455 1.857826 -10.548502
			CHANNELS 3 Zrotation Yrotation Xrotation
			JOINT RightLeg
			{
				OFFSET 43.500038 -0.000023 0.000010
				CHANNELS 3 Zrotation Yrotation Xrotation
				JOINT RightFoot
				{
					OFFSET 42.372261 0.000004 0.000006
					CHANNELS 3 Zrotation Yrotation Xrotation
					JOINT RightToe
					{
						OFFSET 17.299988 -0.000008 0.000010
						CHANNELS 3 Zrotation Yrotation Xrotation
						End Site
						{
							OFFSET 0.000000 0.000000 0.000000
						}
					}
				}
			}
		}
		JOINT Spine
		{
			OFFSET 6.901968 -2.603722 -0.000004
			CHANNELS 3 Zrotation Yrotation Xrotation
			JOINT Spine1
			{
				OFFSET 12.588099 -0.000002 0.000005
				CHANNELS 3 Zrotation Yrotation Xrotation
				JOINT Spine2
				{
					OFFSET 12.343202 -0.000017 -0.000005
					CHANNELS 3 Zrotation Yrotation Xrotation
					JOINT Neck
					{
						OFFSET 25.832903 0.000008 0.000008
						CHANNELS 3 Zrotation Yrotation Xrotation
						JOINT Head
						{
							OFFSET 11.766607 0.000004 -0.000001
							CHANNELS 3 Zrotation Yrotation Xrotation
							End Site
							{
								OFFSET 0.000000 0.000000 0.000000
							}
						}
					}
					JOINT LeftShoulder
					{
						OFFSET 19.745907 -1.480366 6.000107
						CHANNELS 3 Zrotation Yrotation Xrotation
						JOINT LeftArm
						{
							OFFSET 11.284126 -0.000031 -0.000025
							CHANNELS 3 Zrotation Yrotation Xrotation
							JOINT LeftForeArm
							{
								OFFSET 33.000050 0.000011 0.000029
								CHANNELS 3 Zrotation Yrotation Xrotation
								JOINT LeftHand
								{
									OFFSET 25.200008 0.000009 0.000011
									CHANNELS 3 Zrotation Yrotation Xrotation
									End Site
									{
										OFFSET 0.000000 0.000000 0.000000
									}
								}
							}
						}
					}
					JOINT RightShoulder
					{
						OFFSET 19.746094 -1.480364 -6.000070
						CHANNELS 3 Zrotation Yrotation Xrotation
						JOINT RightArm
						{
							OFFSET 11.284145 -0.000017 -0.000020
							CHANNELS 3 Zrotation Yrotation Xrotation
							JOINT RightForeArm
							{
								OFFSET 33.000088 0.000019 0.000022
								CHANNELS 3 Zrotation Yrotation Xrotation
								JOINT RightHand
								{
									OFFSET 25.199780 0.000137 0.000414
									CHANNELS 3 Zrotation Yrotation Xrotation
									End Site
									{
										OFFSET 0.000000 0.000000 0.000000
									}
								}
							}
						}
					}
				}
			}
		}
	}
}
MOTION
Frames: 13
Frame Time: 0.033333
-21.181758 0.000000 -487.718601 0.000000 78.031947 0.000000 -3.895308 87.435997 0.504664 95.990547 -2.311087 178.651180 160.576450 -6.204698 160.806641 -38.448409 0.821373 -2.654478 87.967202 0.330344 -8.647223 21.454551 0.003091 0.000001 153.127022 10.576896 -170.251658 -51.156235 3.606432 12.750356 86.935181 -7.718429 7.066046 21.454558 -0.003112 -0.000017 13.664248 -1.220627 0.322047 17.314721 -2.475683 0.457665 16.996323 -2.472736 0.472621 11.679535 13.631965 -0.989523 -18.131109 2.540078 0.444413 130.403720 -78.677004 48.859792 -17.919234 48.920810 21.843828 -61.291959 -19.964178 2.488429 8.264393 -9.802954 14.678688 110.285097 69.875943 -69.963397 -25.971142 -50.971803 -13.919462 -39.741415 19.809456 -1.792186 11.373721 9.232699 -13.910491 
-20.063732 0.000000 -485.409132 0.000000 76.440087 0.000000 -3.252048 87.523987 0.425329 96.227051 -2.317037 179.650642 160.736481 -7.402305 160.887333 -37.229524 0.557578 -2.728597 87.113824 0.044013 -10.229623 21.454551 0.003086 0.000001 156.105121 11.088107 -172.051782 -55.099416 3.716321 11.989808 89.481502 -7.246199 7.345022 21.454557 -0.003105 -0.000017 13.329806 -1.582026 0.477411 16.643120 -3.216247 0.722170 16.324507 -3.211709 0.741615 10.890504 12.176259 -1.053259 -17.963618 3.687490 -0.217458 134.081681 -78.569899 45.156351 -16.121668 47.447197 23.754051 -60.122849 -20.438757 2.476335 8.841028 -9.237368 14.181512 107.747539 70.409285 -72.457215 -25.996501 -51.880915 -13.863510 -41.238353 19.524729 -1.814520 11.081484 7.431427 -16.953834 
-18.970252 0.000000 -483.192874 0.000000 74.975606 0.000000 -2.608509 87.510017 0.350042 96.596070 -2.563997 -179.341176 161.016396 -8.268799 161.180320 -36.059956 0.253220 -2.906241 86.197103 -0.109686 -11.341825 21.454551 0.003093 -0.000001 160.082340 11.743705 -173.355092 -57.328448 3.733783 12.090834 91.561807 -7.378543 7.518034 21.454551 -0.003098 -0.000016 12.984058 -1.969523 0.660961 15.946656 -4.011309 1.044230 15.627770 -4.004797 1.068482 10.068772 11.042999 -1.078631 -17.263472 4.420028 -0.615588 137.093849 -78.376865 42.128508 -15.155368 46.102503 24.891255 -58.818905 -21.095801 2.472275 9.500408 -8.757581 14.162289 105.026999 70.970488 -75.127409 -26.146096 -52.898623 -14.385312 -42.775719 19.702442 -1.869727 11.628282 6.194520 -17.752954 
-17.902325 0.000000 -481.063389 0.000000 73.640396 0.000000 -1.927164 87.390839 0.306248 97.063595 -2.832865 -178.348348 161.315585 -9.129593 161.291844 -35.111605 0.146800 -2.926450 85.226411 -0.413407 -12.513443 21.454553 0.003095 0.000001 165.116231 12.360793 -173.983578 -57.442731 3.365278 12.753138 93.574234 -7.961180 6.925347 21.454553 -0.003104 -0.000018 12.605083 -2.313832 0.889487 15.179807 -4.724303 1.468234 14.860636 -4.715221 1.496790 9.868367 10.149253 -1.093369 -16.863254 4.893498 -0.940371 140.459507 -78.273223 38.732213 -15.238734 45.098991 25.180778 -57.171695 -21.760472 2.456516 10.077807 -8.802791 14.497481 103.462401 71.113915 -76.678729 -25.606709 -53.543086 -14.811788 -44.381104 19.631862 -1.912188 11.744893 5.365728 -18.158109 
-16.860960 0.000000 -479.014236 0.000000 72.434953 0.000000 -1.176141 86.980377 0.364302 97.664965 -3.373783 -177.438049 161.390936 -9.919599 161.106104 -34.992907 0.258162 -2.764130 84.403489 -0.825222 -13.526520 21.454553 0.003080 -0.000001 170.973992 12.644396 -174.689219 -54.606953 2.662735 13.993982 95.084628 -9.074118 4.215588 21.454558 -0.003118 -0.000014 12.215064 -2.635711 1.123053 14.388019 -5.390563 1.910824 14.068592 -5.378780 1.943424 10.043625 8.632313 -1.116206 -16.836655 5.484966 -1.486948 144.755109 -77.818975 34.415220 -15.604448 44.057852 24.622663 -55.662736 -22.071150 2.422363 10.270663 -8.526747 14.647324 102.428099 71.047874 -77.719206 -24.801206 -54.005411 -15.476855 -45.584669 19.744134 -1.955990 11.582917 4.920750 -18.018999 
-15.847165 0.000000 -477.038976 0.000000 71.358596 0.000000 -0.330861 86.715683 0.451045 98.341475 -3.530178 -177.034365 161.813861 -11.102099 161.228938 -34.558992 0.100321 -2.913283 82.997057 -0.917081 -13.727712 21.454553 0.003094 -0.000000 177.531465 12.590896 -174.844674 -47.585535 1.732739 13.399428 96.554546 -8.509201 6.240581 21.454560 -0.003113 -0.000018 11.802543 -2.838376 1.531876 13.540107 -5.836464 2.723560 13.220621 -5.819772 2.758840 9.952908 6.768233 -1.124954 -16.547670 6.392706 -2.161948 147.551211 -77.052723 31.632283 -15.968842 43.236119 23.344926 -54.976681 -22.113202 2.400324 9.987000 -8.192703 14.335348 101.404615 70.938174 -78.752703 -23.894210 -54.558298 -15.719791 -46.810650 19.902324 -2.004489 11.409994 4.956790 -18.198445 
-14.861946 0.000000 -475.131169 0.000000 70.409697 0.000000 0.389623 86.089081 0.684024 99.107698 -3.800875 -177.447116 162.085416 -12.639107 160.681717 -34.970849 0.136075 -2.946613 82.147798 -1.303866 -15.102592 21.454553 0.003089 0.000000 -176.877625 12.417494 -177.318650 -38.963231 2.580386 12.211073 100.340199 -7.444658 15.727557 21.454557 -0.003110 -0.000018 11.443372 -3.016131 2.049586 12.790076 -6.240292 3.757621 12.470674 -6.217366 3.795323 8.891313 5.568183 -1.351307 -15.525621 6.213725 -2.447019 151.454418 -76.866908 27.679301 -17.583981 43.253703 21.586840 -54.380907 -22.433659 2.400918 9.667320 -9.118755 14.330917 98.844551 71.083520 -81.293977 -23.874195 -55.528099 -13.949832 -48.108683 19.825138 -2.040572 10.927416 5.394429 -20.189597 
-13.906314 0.000000 -473.284375 0.000000 69.585878 0.000000 1.120870 86.229279 0.574683 100.187664 -2.678567 -177.952441 163.160392 -14.547698 160.038176 -34.235599 0.890333 -2.710601 82.013701 -1.331593 -14.406676 21.454551 0.003083 -0.000003 -176.001189 11.252895 -177.422524 -37.990007 3.873755 10.754660 101.186801 -6.702400 13.136747 21.454557 -0.003116 -0.000018 11.196622 -2.779108 2.513950 12.275958 -5.809239 4.723927 11.957264 -5.780507 4.758933 8.327876 4.226110 -1.412020 -15.546170 6.004380 -2.686313 157.922020 -75.936363 21.150997 -20.116843 43.562817 18.876191 -52.772903 -23.000891 2.382715 9.358821 -10.384833 14.236759 99.658962 70.642577 -80.524556 -24.306357 -54.805127 -12.495816 -48.466018 19.936747 -2.059543 10.650317 6.158595 -19.880428 
-12.981274 0.000000 -471.492156 0.000000 68.884194 0.000000 1.423798 86.197372 0.851457 101.412999 -2.308953 -179.518181 164.641573 -15.632913 160.564510 -33.183607 1.122120 -3.618487 82.381377 -0.343874 -13.051504 21.454553 0.003103 0.000002 -178.068755 10.934996 -174.966811 -41.699893 2.997491 8.494027 100.388502 -5.104696 11.912042 21.454558 -0.003100 -0.000017 11.144021 -2.596456 2.769627 12.163129 -5.469713 5.256036 11.844934 -5.437786 5.288932 7.552571 1.773502 -0.570864 -15.118683 6.569888 -2.482743 162.374210 -73.921498 16.708881 -21.151142 44.504211 15.198692 -51.349847 -23.538493 2.369985 9.394430 -12.362081 13.632451 101.105234 70.264485 -79.117804 -26.272032 -52.783056 -11.390044 -47.691096 20.564400 -2.076525 10.854211 7.072062 -18.532767 
-12.087836 0.000000 -469.748070 0.000000 68.301284 0.000000 2.017206 86.433983 1.127163 102.577011 -1.980984 179.227996 167.039352 -16.617401 162.019395 -30.960701 0.380214 -5.052515 82.842087 0.823152 -12.678347 21.454553 0.003102 0.000000 -178.491831 10.083693 -175.074141 -42.789694 3.502464 7.972195 99.500645 -4.771682 10.209534 21.454555 -0.003108 -0.000018 10.948454 -2.323363 2.755082 11.781643 -4.915248 5.263372 11.463743 -4.883284 5.292916 8.548210 -0.196609 0.425063 -15.055205 5.864972 -1.627045 165.861281 -72.977163 13.180528 -21.261672 48.144245 11.147917 -50.393668 -23.925821 2.363716 9.269877 -14.777225 12.648051 100.759108 70.302154 -79.459702 -28.707702 -52.569651 -8.880149 -46.977467 20.720830 -2.064254 10.146033 7.692810 -18.972577 
-11.227007 0.000000 -468.045678 0.000000 67.833498 0.000000 2.858581 86.959084 1.168758 103.831040 -1.764487 178.316748 170.299019 -16.922104 163.189325 -27.501007 -0.098852 -6.602174 83.097243 2.114105 -12.000192 21.454551 0.003103 0.000002 -176.890356 8.758105 -174.299160 -40.962789 2.562228 7.367051 98.929300 -4.376569 9.176922 21.454560 -0.003118 -0.000017 10.645844 -2.086600 2.668353 11.187980 -4.421467 5.125710 10.870261 -4.390336 5.152273 10.428439 0.216549 1.041563 -14.708368 4.369521 -0.371688 166.474782 -73.493525 12.528994 -20.360656 53.107917 7.933121 -50.568958 -24.109388 2.382311 9.147837 -15.569758 11.462496 103.548202 70.634955 -76.639811 -29.710445 -53.123671 -6.786372 -47.695126 20.516210 -2.073435 9.919490 8.041443 -20.232335 
-10.399795 0.000000 -466.378542 0.000000 67.477000 0.000000 3.650116 87.314758 1.082473 104.762106 -1.509877 177.545417 172.734965 -17.194506 163.313293 -24.841475 0.013464 -7.242806 83.880454 2.907000 -10.725746 21.454553 0.003088 -0.000001 -176.013702 7.627903 -176.520720 -39.955811 3.640205 7.970115 98.390405 -4.845390 8.223927 21.454558 -0.003106 -0.000017 10.263071 -1.740759 2.457248 10.441941 -3.696168 4.749520 10.124344 -3.667311 4.771713 11.948762 0.100546 1.932315 -13.820975 3.552506 0.844632 168.480304 -73.808465 10.460605 -19.110630 57.142503 7.716621 -50.871191 -23.777087 2.369855 9.950096 -17.367187 8.314451 105.970112 71.183016 -74.162317 -29.785929 -53.918302 -6.798503 -49.551257 20.835723 -2.155367 10.198312 8.219416 -20.275772 
-9.607208 0.000000 -464.740220 0.000000 67.227841 0.000000 4.247046 87.438202 0.828864 105.124643 -1.390415 176.975969 173.990490 -17.566413 162.644918 -23.010359 0.075973 -6.803824 84.849698 2.900544 -9.566177 21.454553 0.003088 -0.000002 -176.334079 7.033705 -176.480764 -40.206677 3.732975 7.612268 98.122750 -4.653437 7.253979 21.454557 -0.003112 -0.000017 9.822065 -1.319729 2.167908 9.582258 -2.814423 4.220203 9.264691 -2.788771 4.237101 13.353476 -0.092015 2.795206 -13.265417 2.230589 2.170924 169.385604 -73.577591 9.541598 -17.229444 59.842375 10.605841 -51.164356 -23.286476 2.346325 9.724009 -18.822922 5.213392 112.069396 72.058024 -67.959009 -28.076421 -53.670134 -8.828745 -52.217411 20.473038 -2.221273 9.992593 8.439079 -21.820586 
